<?xml version="1.0" encoding="UTF-8"?>
<svg id="Layer_2" data-name="Layer 2" xmlns="http://www.w3.org/2000/svg" viewBox="0 0 84.9 97.6">
  <defs>
    <style>
      .cls-1 {
        fill: #fff;
      }
    </style>
  </defs>
  <g id="Layer_1-2" data-name="Layer 1">
    <g>
      <g>
        <path class="cls-1" d="M65.97,47.02c-10.67,0-19.31,8.65-19.31,19.31h0c10.67,0,19.31-8.65,19.31-19.31h0Z"/>
        <path class="cls-1" d="M18.93,47.02h0c0,10.67,8.65,19.31,19.31,19.31h0c0-10.67-8.65-19.31-19.31-19.31Z"/>
      </g>
      <g>
        <path class="cls-1" d="M35.72,97.6c-20.58,0-22.42-10.71-24.06-20.16-.24-1.38-.49-2.81-.79-4.21-2.51-11.62-5.45-16.26-10.88-17.12l.06-7.24H.01c.1,0,2.38-.42,3.73-2.5,1.29-1.98,1.44-5.1.44-9.03-2.33-9.18-1.41-17.82,2.58-24.31C10.77,6.51,17.63,2.13,27.17,0l1.6,7.15c-7.54,1.68-12.84,4.95-15.77,9.71-3.98,6.47-2.79,14.48-1.72,18.68,1.56,6.14,1.05,11.18-1.51,14.99-.38.56-.78,1.06-1.19,1.52,5.36,4.21,7.76,11.78,9.46,19.64.33,1.55.59,3.05.85,4.51,1.57,9.08,2.43,14.08,16.84,14.08v7.32Z"/>
        <path class="cls-1" d="M49.18,97.6v-7.32c14.41,0,15.27-5,16.84-14.08.25-1.46.51-2.96.85-4.51,1.7-7.87,4.1-15.44,9.46-19.64-.42-.45-.82-.96-1.19-1.52-2.56-3.81-3.07-8.85-1.51-14.99,1.06-4.2,2.26-12.21-1.72-18.68-2.93-4.76-8.23-8.03-15.77-9.71l1.6-7.15c9.54,2.13,16.41,6.51,20.41,13.02,3.99,6.5,4.91,15.13,2.58,24.31-1,3.93-.84,7.05.44,9.03,1.35,2.08,3.63,2.49,3.73,2.51h-.05s.06,7.23.06,7.23c-5.42.86-8.37,5.5-10.88,17.12-.3,1.4-.55,2.83-.79,4.21-1.63,9.45-3.48,20.16-24.06,20.16Z"/>
      </g>
    </g>
  </g>
</svg>