<?xml version="1.0" encoding="UTF-8"?>
<svg id="Layer_2" data-name="Layer 2" xmlns="http://www.w3.org/2000/svg" viewBox="0 0 417.45 479.91">
  <defs>
    <style>
      .cls-1 {
        fill: #2b2c2c;
      }
    </style>
  </defs>
  <g id="Layer_1-2" data-name="Layer 1">
    <g>
      <g>
        <path class="cls-1" d="M324.38,231.18c-52.44,0-94.96,42.51-94.96,94.96h0c52.44,0,94.96-42.51,94.96-94.96h0Z"/>
        <path class="cls-1" d="M93.07,231.18h0c0,52.44,42.51,94.96,94.96,94.96h0c0-52.44-42.51-94.96-94.96-94.96Z"/>
      </g>
      <g>
        <path class="cls-1" d="M175.65,479.91c-101.17,0-110.26-52.65-118.28-99.11-1.18-6.8-2.39-13.84-3.87-20.72-12.33-57.15-26.82-79.96-53.49-84.17l.31-35.61-.26.04c.47-.08,11.69-2.12,18.33-12.33,6.33-9.74,7.08-25.1,2.19-44.41-11.46-45.15-6.95-87.61,12.69-119.55C52.94,32.03,86.71,10.48,133.62,0l7.85,35.14c-37.06,8.28-63.15,24.35-77.54,47.76-19.56,31.82-13.7,71.2-8.46,91.84,7.65,30.17,5.15,54.97-7.43,73.7-1.84,2.74-3.81,5.22-5.86,7.45,26.38,20.7,38.17,57.9,46.51,96.59,1.64,7.61,2.92,15.02,4.16,22.19,7.71,44.64,11.95,69.23,82.8,69.23v36.01Z"/>
        <path class="cls-1" d="M241.8,479.91v-36.01c70.85,0,75.09-24.59,82.8-69.23,1.24-7.17,2.52-14.58,4.16-22.19,8.34-38.69,20.14-75.9,46.51-96.59-2.05-2.23-4.01-4.71-5.86-7.45-12.59-18.73-15.09-43.53-7.43-73.7,5.23-20.64,11.1-60.02-8.46-91.84-14.4-23.41-40.48-39.48-77.54-47.76l7.85-35.14c46.91,10.48,80.68,32.03,100.37,64.04,19.64,31.94,24.15,74.4,12.69,119.55-4.9,19.31-4.14,34.66,2.19,44.41,6.63,10.21,17.85,12.24,18.33,12.33l-.26-.04.31,35.61c-26.67,4.21-41.17,27.02-53.49,84.17-1.48,6.88-2.7,13.92-3.87,20.72-8.02,46.46-17.11,99.11-118.29,99.11Z"/>
      </g>
    </g>
  </g>
</svg>